<?xml version="1.0" standalone="no"?>
<!DOCTYPE svg PUBLIC "-//W3C//DTD SVG 20010904//EN"
 "http://www.w3.org/TR/2001/REC-SVG-20010904/DTD/svg10.dtd">
<svg version="1.0" xmlns="http://www.w3.org/2000/svg"
 width="28.000000pt" height="28.000000pt" viewBox="0 0 28.000000 28.000000"
 preserveAspectRatio="xMidYMid meet">
<metadata>
Created by potrace 1.16, written by Peter Selinger 2001-2019
</metadata>
<g transform="translate(0.000000,28.000000) scale(0.100000,-0.100000)"
fill="#000000" stroke="none">
<path d="M80 193 c-43 -45 -45 -48 -10 -15 38 35 48 40 60 30 12 -11 12 -10 2
3 -9 12 -9 18 0 27 7 7 10 12 7 12 -3 0 -29 -26 -59 -57z"/>
<path d="M198 197 l52 -53 -44 -43 c-29 -29 -46 -39 -51 -31 -4 7 5 24 21 41
26 27 27 30 11 46 -16 16 -19 15 -46 -11 -41 -39 -62 -24 -24 18 l28 31 -33
-30 c-29 -26 -31 -31 -17 -44 13 -13 18 -12 45 14 23 22 33 26 42 17 9 -9 5
-19 -17 -42 -22 -23 -26 -32 -17 -43 9 -10 9 -16 0 -25 -9 -9 -25 0 -68 40
l-55 53 55 -58 54 -57 63 62 63 62 -52 53 c-29 29 -55 53 -57 53 -3 0 18 -24
47 -53z"/>
</g>
</svg>
